<svg width="73" height="68" viewBox="0 0 73 68" fill="none" xmlns="http://www.w3.org/2000/svg">
<rect width="73" height="68" rx="10" fill="#D9D9D9"/>
<path d="M18.8 44.48C18.6133 45.0667 17.9867 45.36 16.92 45.36C15.88 45.36 14.84 45 13.8 44.28C14.6267 42.04 16.2667 38.32 18.72 33.12C21.2 27.8933 22.8533 24 23.68 21.44C23.76 21.12 23.8 20.8533 23.8 20.64C23.8 20.4 23.7067 20.08 23.52 19.68C23.3333 19.28 23.1333 18.96 22.92 18.72L22.64 18.36L22.8 17.56C25.1733 16.92 27.9867 16.6 31.24 16.6L34.32 16.76C34.5867 17 34.8533 17.6267 35.12 18.64C35.3867 19.6533 35.56 21.1733 35.64 23.2C35.72 25.2267 35.7733 29.0267 35.8 34.6C35.8267 38.8933 36.36 41.04 37.4 41.04C37.6667 41.04 38.24 40.9067 39.12 40.64L39.52 40.52L40.36 42.8C39.2667 43.6267 37.9867 44.28 36.52 44.76C35.0533 45.24 33.7333 45.48 32.56 45.48C30.8533 45.48 29.68 44.96 29.04 43.92C28.4267 42.8533 28.12 41.4933 28.12 39.84C28.12 38.16 28.1333 37 28.16 36.36C27.6533 36.2533 26.6667 36.2 25.2 36.2C23.7333 36.2 22.4667 36.3467 21.4 36.64C20.4133 39.28 19.5467 41.8933 18.8 44.48ZM28.32 33C28.4533 30.68 28.52 28.3467 28.52 26C28.52 23.6533 28.3867 21.9467 28.12 20.88C27.8533 20.88 27.6667 20.9067 27.56 20.96C26.9733 22.7467 25.4 26.76 22.84 33H28.32ZM40.2531 37.76C40.2531 34.4533 41.2531 31.88 43.2531 30.04C45.2798 28.2 47.7731 27.28 50.7331 27.28C52.7865 27.28 54.4265 27.7333 55.6531 28.64C56.9065 29.52 57.5331 30.7067 57.5331 32.2C57.5331 33.2933 57.1998 34.2667 56.5331 35.12C55.8665 35.9733 55.0531 36.6267 54.0931 37.08C52.0665 37.9867 50.3065 38.5333 48.8131 38.72L47.8131 38.84C48.1065 40.6 48.9865 41.48 50.4531 41.48C51.0931 41.48 51.7998 41.3467 52.5731 41.08C53.3465 40.7867 53.9598 40.4933 54.4131 40.2L55.0931 39.8L56.3731 41.52C56.3731 41.52 56.2265 41.6667 55.9331 41.96C55.7731 42.12 55.3865 42.44 54.7731 42.92C54.1865 43.3733 53.5598 43.7733 52.8931 44.12C52.2531 44.4667 51.4265 44.7733 50.4131 45.04C49.3998 45.3333 48.3865 45.48 47.3731 45.48C45.1065 45.48 43.3465 44.8267 42.0931 43.52C40.8665 42.1867 40.2531 40.2667 40.2531 37.76ZM47.6531 36.2C48.4265 36.0933 49.1998 35.4667 49.9731 34.32C50.7465 33.1467 51.1331 32.1733 51.1331 31.4C51.1331 30.6 50.9065 30.2 50.4531 30.2C49.7865 30.2 49.1731 30.72 48.6131 31.76C48.0531 32.8 47.7331 34.28 47.6531 36.2Z" fill="#1693A5"/>
</svg>
