<svg width="170" height="30" viewBox="0 0 170 30" fill="none" xmlns="http://www.w3.org/2000/svg">
<path d="M10.6 29.48C7.72 29.48 5.38667 28.44 3.6 26.36C1.81333 24.28 0.92 21.36 0.92 17.6C0.92 14.5867 1.49333 11.8 2.64 9.24C3.81333 6.65333 5.49333 4.57333 7.68 3C9.89333 1.4 12.2667 0.599998 14.8 0.599998C17.36 0.599998 19.4667 1.10666 21.12 2.12C22.8 3.13333 23.64 4.46667 23.64 6.12C23.64 7.74667 23.1867 9.04 22.28 10C21.2133 10 19.9867 9.78667 18.6 9.36C17.2133 8.93333 16.1733 8.41333 15.48 7.8L16.24 3.92C15.68 3.65333 15.1333 3.52 14.6 3.52C13.0533 3.52 11.6933 4.86667 10.52 7.56C9.34667 10.2267 8.76 13.36 8.76 16.96C8.76 22.3467 10.28 25.04 13.32 25.04C15.1333 25.04 17.16 24.0533 19.4 22.08L21.28 23.96C21.0667 24.3067 20.52 24.88 19.64 25.68C18.76 26.4533 17.92 27.08 17.12 27.56C16.3467 28.04 15.36 28.48 14.16 28.88C12.9867 29.28 11.8 29.48 10.6 29.48ZM29.645 29.48C27.565 29.48 25.925 28.8267 24.725 27.52C23.525 26.1867 22.925 24.32 22.925 21.92C22.925 18.9867 23.7917 16.5067 25.525 14.48C27.2583 12.4267 29.5383 11.4 32.365 11.4L34.165 11.56C34.805 11.3733 35.405 11.28 35.965 11.28C37.2983 11.28 38.245 11.7333 38.805 12.64C39.3917 13.5467 39.725 14.84 39.805 16.52C40.925 16.4667 41.9917 16.2933 43.005 16L43.565 15.84C43.7517 16.0267 43.885 16.5867 43.965 17.52L44.005 17.96C42.805 18.5733 41.3383 19.0533 39.605 19.4C39.0183 22.2267 37.8583 24.6133 36.125 26.56C34.3917 28.5067 32.2317 29.48 29.645 29.48ZM30.445 21.76C30.445 24.24 31.0717 25.48 32.325 25.48C33.205 25.48 34.0983 24.92 35.005 23.8C35.9383 22.68 36.5783 21.32 36.925 19.72C34.205 19.72 32.845 18.4133 32.845 15.8C32.845 15.3467 32.885 14.88 32.965 14.4C32.6983 14.4 32.4983 14.44 32.365 14.52C31.9117 15 31.4717 15.9733 31.045 17.44C30.645 18.88 30.445 20.32 30.445 21.76ZM42.0566 29.24H41.3766C41.3766 27.5867 41.7499 25.08 42.4966 21.72C43.2699 18.36 43.6566 16.4267 43.6566 15.92C43.6566 15.4133 43.5366 14.92 43.2966 14.44C43.0566 13.96 42.8166 13.6 42.5766 13.36L42.2166 13L42.2966 12.4C43.8699 11.8933 46.6166 11.64 50.5366 11.64C50.8032 12.2533 50.9899 12.8933 51.0966 13.56C53.5232 12.0667 55.5632 11.32 57.2166 11.32C58.3366 11.32 59.2166 11.6933 59.8566 12.44C60.4966 13.16 60.8166 14.04 60.8166 15.08C60.8166 16.0933 60.5232 17.7333 59.9366 20C59.3499 22.2667 59.0566 23.7467 59.0566 24.44C59.0566 25.1067 59.1499 25.44 59.3366 25.44L61.4566 24.88L62.1766 26.88C61.3232 27.52 60.2032 28.12 58.8166 28.68C57.4566 29.2133 56.2032 29.48 55.0566 29.48C52.7899 29.48 51.6566 28.3067 51.6566 25.96C51.6566 24.9467 51.9366 23.2933 52.4966 21C53.0566 18.7067 53.3366 17.28 53.3366 16.72C53.3366 16.1333 53.1499 15.84 52.7766 15.84C52.2966 15.84 51.6566 16.1067 50.8566 16.64C50.7499 17.12 50.4832 18.28 50.0566 20.12C49.2032 23.9867 48.7766 26.7733 48.7766 28.48C47.4699 28.9867 45.2299 29.24 42.0566 29.24ZM77.005 14.84L73.565 14.56C72.4983 19.3333 71.9117 22.1067 71.805 22.88C71.725 23.6533 71.685 24.2933 71.685 24.8C71.685 25.28 71.845 25.52 72.165 25.52C72.5383 25.52 73.245 25.28 74.285 24.8L75.245 26.72C74.3917 27.4933 73.3117 28.1467 72.005 28.68C70.6983 29.2133 69.4317 29.48 68.205 29.48C67.005 29.48 66.045 29.1733 65.325 28.56C64.605 27.92 64.245 27.0267 64.245 25.88C64.245 24.7333 64.5783 22.8933 65.245 20.36C65.9117 17.8267 66.3517 15.9467 66.565 14.72C65.925 14.7733 64.9783 14.8667 63.725 15C63.6183 14.44 63.565 13.92 63.565 13.44C63.565 12.9333 63.6317 12.3733 63.765 11.76H66.965C66.9917 11.4133 67.005 10.2533 67.005 8.28L66.925 6.64C69.5117 5.78667 71.9783 5.36 74.325 5.36C74.5117 5.78667 74.605 6.53333 74.605 7.6C74.605 8.64 74.4317 10.0267 74.085 11.76H77.685C77.685 12.8533 77.4583 13.88 77.005 14.84ZM77.6006 29.24H77.2806C77.2006 28.8667 77.1606 28.2933 77.1606 27.52C77.1606 26.72 77.4806 24.68 78.1206 21.4C78.7873 18.0933 79.1206 16.2267 79.1206 15.8C79.1206 15.3467 79.0006 14.8933 78.7606 14.44C78.5206 13.96 78.2806 13.6 78.0406 13.36L77.6806 13L77.7606 12.4C79.3606 11.8933 82.014 11.64 85.7206 11.64C86.0673 12.3067 86.2806 13.0933 86.3606 14C87.9873 12.1867 89.4273 11.28 90.6806 11.28C92.3073 11.28 93.2006 12.6533 93.3606 15.4C93.3073 15.4533 93.2406 15.5467 93.1606 15.68C93.0806 15.7867 92.894 15.9867 92.6006 16.28C92.3073 16.5733 92.0006 16.84 91.6806 17.08C90.774 17.6933 89.814 18.0533 88.8006 18.16C88.774 18.16 88.5873 17.8667 88.2406 17.28C87.9206 16.6933 87.6406 16.4 87.4006 16.4C87.1873 16.4 86.774 16.64 86.1606 17.12C86.0806 17.6 85.9206 18.4133 85.6806 19.56C85.4673 20.7067 85.294 21.6533 85.1606 22.4C84.7606 24.3733 84.5606 26.0267 84.5606 27.36L84.6006 28.56C83.4273 29.0133 81.094 29.24 77.6006 29.24ZM112.025 12.8C111.465 14.5333 110.985 16.6 110.585 19C110.185 21.3733 109.985 23.04 109.985 24C109.985 24.9333 110.131 25.4 110.425 25.4L112.425 24.84L113.145 26.84C112.291 27.5067 111.198 28.12 109.865 28.68C108.558 29.2133 107.398 29.48 106.385 29.48C104.651 29.48 103.558 28.7333 103.105 27.24C100.998 28.7333 99.1314 29.48 97.5047 29.48C95.9047 29.48 94.6647 28.8933 93.7847 27.72C92.9047 26.5467 92.4647 24.8667 92.4647 22.68C92.4647 19.6667 93.238 17.0133 94.7847 14.72C96.3314 12.4267 98.3714 11.28 100.905 11.28C102.291 11.28 103.705 11.6667 105.145 12.44C105.358 11.96 105.531 11.6133 105.665 11.4C107.585 11.4 109.705 11.8667 112.025 12.8ZM99.9847 22.2C99.9847 23.5333 100.078 24.3733 100.265 24.72C100.451 25.0667 100.798 25.24 101.305 25.24C101.811 25.24 102.305 25.04 102.785 24.64C102.891 21.5467 103.398 18.3067 104.305 14.92C103.905 14.68 103.438 14.56 102.905 14.56C102.398 14.56 101.931 14.8533 101.505 15.44C101.105 16.0267 100.798 16.76 100.585 17.64C100.185 19.32 99.9847 20.84 99.9847 22.2ZM127.435 14.84L123.995 14.56C122.928 19.3333 122.341 22.1067 122.235 22.88C122.155 23.6533 122.115 24.2933 122.115 24.8C122.115 25.28 122.275 25.52 122.595 25.52C122.968 25.52 123.675 25.28 124.715 24.8L125.675 26.72C124.821 27.4933 123.741 28.1467 122.435 28.68C121.128 29.2133 119.861 29.48 118.635 29.48C117.435 29.48 116.475 29.1733 115.755 28.56C115.035 27.92 114.675 27.0267 114.675 25.88C114.675 24.7333 115.008 22.8933 115.675 20.36C116.341 17.8267 116.781 15.9467 116.995 14.72C116.355 14.7733 115.408 14.8667 114.155 15C114.048 14.44 113.995 13.92 113.995 13.44C113.995 12.9333 114.061 12.3733 114.195 11.76H117.395C117.421 11.4133 117.435 10.2533 117.435 8.28L117.355 6.64C119.941 5.78667 122.408 5.36 124.755 5.36C124.941 5.78667 125.035 6.53333 125.035 7.6C125.035 8.64 124.861 10.0267 124.515 11.76H128.115C128.115 12.8533 127.888 13.88 127.435 14.84Z" fill="#191013"/>
<path d="M131.081 28.48C130.895 29.0667 130.268 29.36 129.201 29.36C128.161 29.36 127.121 29 126.081 28.28C126.908 26.04 128.548 22.32 131.001 17.12C133.481 11.8933 135.135 8 135.961 5.44C136.041 5.12 136.081 4.85333 136.081 4.64C136.081 4.4 135.988 4.08 135.801 3.68C135.615 3.28 135.415 2.96 135.201 2.72L134.921 2.36L135.081 1.56C137.455 0.919998 140.268 0.599998 143.521 0.599998L146.601 0.759999C146.868 0.999999 147.135 1.62667 147.401 2.64C147.668 3.65333 147.841 5.17333 147.921 7.2C148.001 9.22667 148.055 13.0267 148.081 18.6C148.108 22.8933 148.641 25.04 149.681 25.04C149.948 25.04 150.521 24.9067 151.401 24.64L151.801 24.52L152.641 26.8C151.548 27.6267 150.268 28.28 148.801 28.76C147.335 29.24 146.015 29.48 144.841 29.48C143.135 29.48 141.961 28.96 141.321 27.92C140.708 26.8533 140.401 25.4933 140.401 23.84C140.401 22.16 140.415 21 140.441 20.36C139.935 20.2533 138.948 20.2 137.481 20.2C136.015 20.2 134.748 20.3467 133.681 20.64C132.695 23.28 131.828 25.8933 131.081 28.48ZM140.601 17C140.735 14.68 140.801 12.3467 140.801 10C140.801 7.65333 140.668 5.94667 140.401 4.88C140.135 4.88 139.948 4.90667 139.841 4.96C139.255 6.74667 137.681 10.76 135.121 17H140.601ZM152.534 21.76C152.534 18.4533 153.534 15.88 155.534 14.04C157.561 12.2 160.054 11.28 163.014 11.28C165.068 11.28 166.708 11.7333 167.934 12.64C169.188 13.52 169.814 14.7067 169.814 16.2C169.814 17.2933 169.481 18.2667 168.814 19.12C168.148 19.9733 167.334 20.6267 166.374 21.08C164.348 21.9867 162.588 22.5333 161.094 22.72L160.094 22.84C160.388 24.6 161.268 25.48 162.734 25.48C163.374 25.48 164.081 25.3467 164.854 25.08C165.628 24.7867 166.241 24.4933 166.694 24.2L167.374 23.8L168.654 25.52C168.654 25.52 168.508 25.6667 168.214 25.96C168.054 26.12 167.668 26.44 167.054 26.92C166.468 27.3733 165.841 27.7733 165.174 28.12C164.534 28.4667 163.708 28.7733 162.694 29.04C161.681 29.3333 160.668 29.48 159.654 29.48C157.388 29.48 155.628 28.8267 154.374 27.52C153.148 26.1867 152.534 24.2667 152.534 21.76ZM159.934 20.2C160.708 20.0933 161.481 19.4667 162.254 18.32C163.028 17.1467 163.414 16.1733 163.414 15.4C163.414 14.6 163.188 14.2 162.734 14.2C162.068 14.2 161.454 14.72 160.894 15.76C160.334 16.8 160.014 18.28 159.934 20.2Z" fill="#1693A5"/>
</svg>
